<?xml version="1.0" standalone="no"?>
<!DOCTYPE svg PUBLIC "-//W3C//DTD SVG 20010904//EN"
 "http://www.w3.org/TR/2001/REC-SVG-20010904/DTD/svg10.dtd">
<svg version="1.0" xmlns="http://www.w3.org/2000/svg"
 width="1080.000000pt" height="1080.000000pt" viewBox="0 0 1080.000000 1080.000000"
 preserveAspectRatio="xMidYMid meet">

<g transform="translate(0.000000,1080.000000) scale(0.100000,-0.100000)"
fill="#0d7081" stroke="none">
<path d="M919 10756 c-206 -83 -360 -186 -524 -351 -167 -166 -272 -325 -354
-532 l-41 -103 0 -560 c0 -308 1 -560 3 -560 2 0 1217 245 2700 545 l2697 545
2697 -545 c1483 -300 2699 -545 2701 -545 2 0 2 188 0 418 -4 385 -6 425 -27
526 -67 324 -205 581 -435 811 -167 167 -327 273 -533 354 l-103 41 -4337 0
-4338 -1 -106 -43z"/>
<path d="M3103 8617 c-1337 -271 -2276 -465 -2265 -469 9 -4 982 -278 2162
-608 1180 -331 2182 -612 2227 -626 69 -20 84 -29 89 -48 9 -36 -18 -78 -88
-139 -191 -168 -360 -301 -415 -327 -120 -59 100 -113 -2478 610 -1279 359
-2328 651 -2330 648 -3 -3 -4 -939 -3 -2081 l3 -2076 4928 2336 c2710 1285
4926 2338 4924 2340 -4 4 -4455 903 -4465 902 -4 0 -1034 -208 -2289 -462z"/>
<path d="M5618 5221 c-2848 -1350 -5177 -2456 -5175 -2457 1 -2 1117 -228
2480 -503 l2477 -501 2252 455 c1238 250 2253 456 2254 458 2 1 -981 279
-2184 616 -1203 338 -2215 622 -2249 633 -50 15 -64 24 -69 42 -9 35 18 78 88
139 194 170 360 301 416 328 122 59 -93 112 2527 -624 l2360 -664 3 1134 c1
623 1 1643 0 2266 l-3 1133 -5177 -2455z"/>
<path d="M0 1645 l0 -545 41 -103 c81 -206 187 -366 354 -533 261 -261 562
-407 935 -453 118 -15 7952 -15 8070 0 373 46 674 192 936 453 230 231 368
489 435 812 21 100 23 142 27 512 2 221 2 402 0 402 -2 0 -1217 -245 -2701
-545 l-2697 -545 -2697 545 c-1484 300 -2699 545 -2700 545 -2 0 -3 -245 -3
-545z"/>
</g>
</svg>
