<?xml version="1.0" encoding="UTF-8"?>
<svg xmlns="http://www.w3.org/2000/svg" xmlns:xlink="http://www.w3.org/1999/xlink" width="165px" height="165px" viewBox="0 0 165 165" version="1.1">
<g id="surface1">
<path style=" stroke:rgb(100%,100%,100%);fill-rule:evenodd;fill:rgb(0%,0%,0%);fill-opacity:1;" d="M 128.460938 131.292969 C 141.925781 118.640625 149.550781 100.976562 149.53125 82.5 C 149.53125 45.476562 119.523438 15.46875 82.5 15.46875 C 45.476562 15.46875 15.46875 45.476562 15.46875 82.5 C 15.449219 100.976562 23.074219 118.640625 36.539062 131.292969 C 48.964844 143.027344 65.410156 149.554688 82.5 149.53125 C 99.589844 149.554688 116.035156 143.027344 128.460938 131.292969 Z M 42.246094 122.457031 C 52.023438 110.226562 66.839844 103.109375 82.5 103.125 C 98.160156 103.109375 112.976562 110.226562 122.753906 122.457031 C 112.117188 133.203125 97.617188 139.238281 82.5 139.21875 C 67.382812 139.238281 52.882812 133.203125 42.246094 122.457031 Z M 108.28125 61.875 C 108.28125 76.113281 96.738281 87.65625 82.5 87.65625 C 68.261719 87.65625 56.71875 76.113281 56.71875 61.875 C 56.71875 47.636719 68.261719 36.09375 82.5 36.09375 C 96.738281 36.09375 108.28125 47.636719 108.28125 61.875 Z M 108.28125 61.875 "/>
</g>
</svg>
